<?xml version="1.0" encoding="utf-8"?>
<!-- Generator: Adobe Illustrator 22.0.0, SVG Export Plug-In . SVG Version: 6.00 Build 0)  -->
<!DOCTYPE svg PUBLIC "-//W3C//DTD SVG 1.1//EN" "http://www.w3.org/Graphics/SVG/1.1/DTD/svg11.dtd">
<svg version="1.1" xmlns="http://www.w3.org/2000/svg" xmlns:xlink="http://www.w3.org/1999/xlink" x="0px" y="0px"
	 viewBox="0 0 960 560" style="enable-background:new 0 0 960 560;" xml:space="preserve">
<style type="text/css">
	.st0{fill:#D7DADB;}
	.st1{opacity:0.2;}
	.st2{fill:#6DBCDB;}
	.st3{opacity:0.5;}
	.st4{opacity:0.8;}
	.st5{fill:#FC4349;}
	.st6{fill:#2C3E50;}
</style>
<g id="Layer_2">
	<rect x="83.2" y="4.2" class="st0" width="642.4" height="263.2"/>
</g>
<g id="Layer_1">
	<g>
		<path class="st0" d="M272,181.4h13.6v40H272V181.4z"/>
		<path class="st0" d="M289.7,181.4h10.6l10.4,15.4l10.4-15.4h10.6v40h-12.8v-14.4l-8.2,12l-8.2-12v14.4h-12.8V181.4z"/>
		<path class="st0" d="M335.7,181.4h10.6l10.4,15.4l10.4-15.4h10.6v40h-12.8v-14.4l-8.2,12l-8.2-12v14.4h-12.8V181.4z"/>
		<path class="st0" d="M397.2,222.5c-2.5,0-4.8-0.3-6.8-1c-2-0.6-3.8-1.6-5.2-2.9c-1.4-1.3-2.5-2.9-3.3-4.9c-0.8-2-1.2-4.3-1.2-6.9
			v-25.4h12.8v24.9c0,1.4,0.3,2.5,0.9,3.2c0.6,0.7,1.5,1.1,2.9,1.1c1.4,0,2.3-0.4,2.9-1.1c0.6-0.7,0.9-1.8,0.9-3.2v-24.9h12.8v25.4
			c0,2.6-0.4,4.9-1.2,6.9c-0.8,2-1.9,3.6-3.4,4.9c-1.5,1.3-3.2,2.2-5.2,2.9C402,222.2,399.7,222.5,397.2,222.5z"/>
		<path class="st0" d="M423.2,191.9h-7.4v-10.5h28v10.5h-7.4v29.5h-13.2V191.9z"/>
		<path class="st0" d="M453.4,181.4h9.6l15.2,40h-12.6l-1.3-3.6h-12.1l-1.3,3.6h-12.6L453.4,181.4z M460.9,209l-2.7-7l-2.7,7H460.9z
			"/>
		<path class="st0" d="M479.2,181.4h15.7c2,0,3.8,0.2,5.5,0.7c1.7,0.5,3.1,1.1,4.3,2s2.1,2,2.8,3.4c0.7,1.3,1,2.9,1,4.7
			c0,1.3-0.2,2.4-0.5,3.3c-0.3,0.9-0.7,1.7-1,2.2c-0.4,0.7-0.9,1.3-1.5,1.8c0.9,0.6,1.7,1.3,2.4,2.2c0.6,0.8,1.1,1.7,1.6,2.9
			c0.5,1.2,0.8,2.6,0.8,4.3c0,1.9-0.3,3.7-1,5.2c-0.7,1.6-1.7,2.9-2.9,4c-1.3,1.1-2.8,1.9-4.6,2.5c-1.8,0.6-3.8,0.9-6.1,0.9h-16.3
			V181.4z M496,193.6c0-1.8-1-2.8-3-2.8h-1.4v5.5h1.4C495,196.4,496,195.5,496,193.6z M493,212c3,0,4.6-1.2,4.6-3.5
			c0-2.3-1.5-3.5-4.6-3.5h-1.4v7H493z"/>
		<path class="st0" d="M513.7,181.4H527V211h11v10.5h-24.4V181.4z"/>
		<path class="st0" d="M540,181.4h23.6v10.5h-10.8v4.4h10.6v10h-10.6v4.6H564v10.5h-24V181.4z"/>
	</g>
	<g class="st1">
		<path class="st2" d="M272,181.4h13.6v40H272V181.4z"/>
		<path class="st2" d="M289.7,181.4h10.6l10.4,15.4l10.4-15.4h10.6v40h-12.8v-14.4l-8.2,12l-8.2-12v14.4h-12.8V181.4z"/>
		<path class="st2" d="M335.7,181.4h10.6l10.4,15.4l10.4-15.4h10.6v40h-12.8v-14.4l-8.2,12l-8.2-12v14.4h-12.8V181.4z"/>
		<path class="st2" d="M397.2,222.5c-2.5,0-4.8-0.3-6.8-1c-2-0.6-3.8-1.6-5.2-2.9c-1.4-1.3-2.5-2.9-3.3-4.9c-0.8-2-1.2-4.3-1.2-6.9
			v-25.4h12.8v24.9c0,1.4,0.3,2.5,0.9,3.2c0.6,0.7,1.5,1.1,2.9,1.1c1.4,0,2.3-0.4,2.9-1.1c0.6-0.7,0.9-1.8,0.9-3.2v-24.9h12.8v25.4
			c0,2.6-0.4,4.9-1.2,6.9c-0.8,2-1.9,3.6-3.4,4.9c-1.5,1.3-3.2,2.2-5.2,2.9C402,222.2,399.7,222.5,397.2,222.5z"/>
		<path class="st2" d="M423.2,191.9h-7.4v-10.5h28v10.5h-7.4v29.5h-13.2V191.9z"/>
		<path class="st2" d="M453.4,181.4h9.6l15.2,40h-12.6l-1.3-3.6h-12.1l-1.3,3.6h-12.6L453.4,181.4z M460.9,209l-2.7-7l-2.7,7H460.9z
			"/>
		<path class="st2" d="M479.2,181.4h15.7c2,0,3.8,0.2,5.5,0.7c1.7,0.5,3.1,1.1,4.3,2s2.1,2,2.8,3.4c0.7,1.3,1,2.9,1,4.7
			c0,1.3-0.2,2.4-0.5,3.3c-0.3,0.9-0.7,1.7-1,2.2c-0.4,0.7-0.9,1.3-1.5,1.8c0.9,0.6,1.7,1.3,2.4,2.2c0.6,0.8,1.1,1.7,1.6,2.9
			c0.5,1.2,0.8,2.6,0.8,4.3c0,1.9-0.3,3.7-1,5.2c-0.7,1.6-1.7,2.9-2.9,4c-1.3,1.1-2.8,1.9-4.6,2.5c-1.8,0.6-3.8,0.9-6.1,0.9h-16.3
			V181.4z M496,193.6c0-1.8-1-2.8-3-2.8h-1.4v5.5h1.4C495,196.4,496,195.5,496,193.6z M493,212c3,0,4.6-1.2,4.6-3.5
			c0-2.3-1.5-3.5-4.6-3.5h-1.4v7H493z"/>
		<path class="st2" d="M513.7,181.4H527V211h11v10.5h-24.4V181.4z"/>
		<path class="st2" d="M540,181.4h23.6v10.5h-10.8v4.4h10.6v10h-10.6v4.6H564v10.5h-24V181.4z"/>
	</g>
	<g>
		<path class="st0" d="M272,161.4h13.6v40H272V161.4z"/>
		<path class="st0" d="M289.7,161.4h10.6l10.4,15.4l10.4-15.4h10.6v40h-12.8v-14.4l-8.2,12l-8.2-12v14.4h-12.8V161.4z"/>
		<path class="st0" d="M335.7,161.4h10.6l10.4,15.4l10.4-15.4h10.6v40h-12.8v-14.4l-8.2,12l-8.2-12v14.4h-12.8V161.4z"/>
		<path class="st0" d="M397.2,202.5c-2.5,0-4.8-0.3-6.8-1c-2-0.6-3.8-1.6-5.2-2.9c-1.4-1.3-2.5-2.9-3.3-4.9c-0.8-2-1.2-4.3-1.2-6.9
			v-25.4h12.8v24.9c0,1.4,0.3,2.5,0.9,3.2c0.6,0.7,1.5,1.1,2.9,1.1c1.4,0,2.3-0.4,2.9-1.1c0.6-0.7,0.9-1.8,0.9-3.2v-24.9h12.8v25.4
			c0,2.6-0.4,4.9-1.2,6.9c-0.8,2-1.9,3.6-3.4,4.9c-1.5,1.3-3.2,2.2-5.2,2.9C402,202.2,399.7,202.5,397.2,202.5z"/>
		<path class="st0" d="M423.2,171.9h-7.4v-10.5h28v10.5h-7.4v29.5h-13.2V171.9z"/>
		<path class="st0" d="M453.4,161.4h9.6l15.2,40h-12.6l-1.3-3.6h-12.1l-1.3,3.6h-12.6L453.4,161.4z M460.9,189l-2.7-7l-2.7,7H460.9z
			"/>
		<path class="st0" d="M479.2,161.4h15.7c2,0,3.8,0.2,5.5,0.7c1.7,0.5,3.1,1.1,4.3,2s2.1,2,2.8,3.4c0.7,1.3,1,2.9,1,4.7
			c0,1.3-0.2,2.4-0.5,3.3c-0.3,0.9-0.7,1.7-1,2.2c-0.4,0.7-0.9,1.3-1.5,1.8c0.9,0.6,1.7,1.3,2.4,2.2c0.6,0.8,1.1,1.7,1.6,2.9
			c0.5,1.2,0.8,2.6,0.8,4.3c0,1.9-0.3,3.7-1,5.2c-0.7,1.6-1.7,2.9-2.9,4c-1.3,1.1-2.8,1.9-4.6,2.5c-1.8,0.6-3.8,0.9-6.1,0.9h-16.3
			V161.4z M496,173.6c0-1.8-1-2.8-3-2.8h-1.4v5.5h1.4C495,176.4,496,175.5,496,173.6z M493,192c3,0,4.6-1.2,4.6-3.5
			c0-2.3-1.5-3.5-4.6-3.5h-1.4v7H493z"/>
		<path class="st0" d="M513.7,161.4H527V191h11v10.5h-24.4V161.4z"/>
		<path class="st0" d="M540,161.4h23.6v10.5h-10.8v4.4h10.6v10h-10.6v4.6H564v10.5h-24V161.4z"/>
	</g>
	<g class="st3">
		<path class="st2" d="M272,161.4h13.6v40H272V161.4z"/>
		<path class="st2" d="M289.7,161.4h10.6l10.4,15.4l10.4-15.4h10.6v40h-12.8v-14.4l-8.2,12l-8.2-12v14.4h-12.8V161.4z"/>
		<path class="st2" d="M335.7,161.4h10.6l10.4,15.4l10.4-15.4h10.6v40h-12.8v-14.4l-8.2,12l-8.2-12v14.4h-12.8V161.4z"/>
		<path class="st2" d="M397.2,202.5c-2.5,0-4.8-0.3-6.8-1c-2-0.6-3.8-1.6-5.2-2.9c-1.4-1.3-2.5-2.9-3.3-4.9c-0.8-2-1.2-4.3-1.2-6.9
			v-25.4h12.8v24.9c0,1.4,0.3,2.5,0.9,3.2c0.6,0.7,1.5,1.1,2.9,1.1c1.4,0,2.3-0.4,2.9-1.1c0.6-0.7,0.9-1.8,0.9-3.2v-24.9h12.8v25.4
			c0,2.6-0.4,4.9-1.2,6.9c-0.8,2-1.9,3.6-3.4,4.9c-1.5,1.3-3.2,2.2-5.2,2.9C402,202.2,399.7,202.5,397.2,202.5z"/>
		<path class="st2" d="M423.2,171.9h-7.4v-10.5h28v10.5h-7.4v29.5h-13.2V171.9z"/>
		<path class="st2" d="M453.4,161.4h9.6l15.2,40h-12.6l-1.3-3.6h-12.1l-1.3,3.6h-12.6L453.4,161.4z M460.9,189l-2.7-7l-2.7,7H460.9z
			"/>
		<path class="st2" d="M479.2,161.4h15.7c2,0,3.8,0.2,5.5,0.7c1.7,0.5,3.1,1.1,4.3,2s2.1,2,2.8,3.4c0.7,1.3,1,2.9,1,4.7
			c0,1.3-0.2,2.4-0.5,3.3c-0.3,0.9-0.7,1.7-1,2.2c-0.4,0.7-0.9,1.3-1.5,1.8c0.9,0.6,1.7,1.3,2.4,2.2c0.6,0.8,1.1,1.7,1.6,2.9
			c0.5,1.2,0.8,2.6,0.8,4.3c0,1.9-0.3,3.7-1,5.2c-0.7,1.6-1.7,2.9-2.9,4c-1.3,1.1-2.8,1.9-4.6,2.5c-1.8,0.6-3.8,0.9-6.1,0.9h-16.3
			V161.4z M496,173.6c0-1.8-1-2.8-3-2.8h-1.4v5.5h1.4C495,176.4,496,175.5,496,173.6z M493,192c3,0,4.6-1.2,4.6-3.5
			c0-2.3-1.5-3.5-4.6-3.5h-1.4v7H493z"/>
		<path class="st2" d="M513.7,161.4H527V191h11v10.5h-24.4V161.4z"/>
		<path class="st2" d="M540,161.4h23.6v10.5h-10.8v4.4h10.6v10h-10.6v4.6H564v10.5h-24V161.4z"/>
	</g>
	<g>
		<path class="st0" d="M272,141.4h13.6v40H272V141.4z"/>
		<path class="st0" d="M289.7,141.4h10.6l10.4,15.4l10.4-15.4h10.6v40h-12.8v-14.4l-8.2,12l-8.2-12v14.4h-12.8V141.4z"/>
		<path class="st0" d="M335.7,141.4h10.6l10.4,15.4l10.4-15.4h10.6v40h-12.8v-14.4l-8.2,12l-8.2-12v14.4h-12.8V141.4z"/>
		<path class="st0" d="M397.2,182.5c-2.5,0-4.8-0.3-6.8-1c-2-0.6-3.8-1.6-5.2-2.9c-1.4-1.3-2.5-2.9-3.3-4.9c-0.8-2-1.2-4.3-1.2-6.9
			v-25.4h12.8v24.9c0,1.4,0.3,2.5,0.9,3.2c0.6,0.7,1.5,1.1,2.9,1.1c1.4,0,2.3-0.4,2.9-1.1c0.6-0.7,0.9-1.8,0.9-3.2v-24.9h12.8v25.4
			c0,2.6-0.4,4.9-1.2,6.9c-0.8,2-1.9,3.6-3.4,4.9c-1.5,1.3-3.2,2.2-5.2,2.9C402,182.2,399.7,182.5,397.2,182.5z"/>
		<path class="st0" d="M423.2,151.9h-7.4v-10.5h28v10.5h-7.4v29.5h-13.2V151.9z"/>
		<path class="st0" d="M453.4,141.4h9.6l15.2,40h-12.6l-1.3-3.6h-12.1l-1.3,3.6h-12.6L453.4,141.4z M460.9,169l-2.7-7l-2.7,7H460.9z
			"/>
		<path class="st0" d="M479.2,141.4h15.7c2,0,3.8,0.2,5.5,0.7c1.7,0.5,3.1,1.1,4.3,2s2.1,2,2.8,3.4c0.7,1.3,1,2.9,1,4.7
			c0,1.3-0.2,2.4-0.5,3.3c-0.3,0.9-0.7,1.7-1,2.2c-0.4,0.7-0.9,1.3-1.5,1.8c0.9,0.6,1.7,1.3,2.4,2.2c0.6,0.8,1.1,1.7,1.6,2.9
			c0.5,1.2,0.8,2.6,0.8,4.3c0,1.9-0.3,3.7-1,5.2c-0.7,1.6-1.7,2.9-2.9,4c-1.3,1.1-2.8,1.9-4.6,2.5c-1.8,0.6-3.8,0.9-6.1,0.9h-16.3
			V141.4z M496,153.6c0-1.8-1-2.8-3-2.8h-1.4v5.5h1.4C495,156.4,496,155.5,496,153.6z M493,172c3,0,4.6-1.2,4.6-3.5
			c0-2.3-1.5-3.5-4.6-3.5h-1.4v7H493z"/>
		<path class="st0" d="M513.7,141.4H527V171h11v10.5h-24.4V141.4z"/>
		<path class="st0" d="M540,141.4h23.6v10.5h-10.8v4.4h10.6v10h-10.6v4.6H564v10.5h-24V141.4z"/>
	</g>
	<g class="st4">
		<path class="st2" d="M272,141.4h13.6v40H272V141.4z"/>
		<path class="st2" d="M289.7,141.4h10.6l10.4,15.4l10.4-15.4h10.6v40h-12.8v-14.4l-8.2,12l-8.2-12v14.4h-12.8V141.4z"/>
		<path class="st2" d="M335.7,141.4h10.6l10.4,15.4l10.4-15.4h10.6v40h-12.8v-14.4l-8.2,12l-8.2-12v14.4h-12.8V141.4z"/>
		<path class="st2" d="M397.2,182.5c-2.5,0-4.8-0.3-6.8-1c-2-0.6-3.8-1.6-5.2-2.9c-1.4-1.3-2.5-2.9-3.3-4.9c-0.8-2-1.2-4.3-1.2-6.9
			v-25.4h12.8v24.9c0,1.4,0.3,2.5,0.9,3.2c0.6,0.7,1.5,1.1,2.9,1.1c1.4,0,2.3-0.4,2.9-1.1c0.6-0.7,0.9-1.8,0.9-3.2v-24.9h12.8v25.4
			c0,2.6-0.4,4.9-1.2,6.9c-0.8,2-1.9,3.6-3.4,4.9c-1.5,1.3-3.2,2.2-5.2,2.9C402,182.2,399.7,182.5,397.2,182.5z"/>
		<path class="st2" d="M423.2,151.9h-7.4v-10.5h28v10.5h-7.4v29.5h-13.2V151.9z"/>
		<path class="st2" d="M453.4,141.4h9.6l15.2,40h-12.6l-1.3-3.6h-12.1l-1.3,3.6h-12.6L453.4,141.4z M460.9,169l-2.7-7l-2.7,7H460.9z
			"/>
		<path class="st2" d="M479.2,141.4h15.7c2,0,3.8,0.2,5.5,0.7c1.7,0.5,3.1,1.1,4.3,2s2.1,2,2.8,3.4c0.7,1.3,1,2.9,1,4.7
			c0,1.3-0.2,2.4-0.5,3.3c-0.3,0.9-0.7,1.7-1,2.2c-0.4,0.7-0.9,1.3-1.5,1.8c0.9,0.6,1.7,1.3,2.4,2.2c0.6,0.8,1.1,1.7,1.6,2.9
			c0.5,1.2,0.8,2.6,0.8,4.3c0,1.9-0.3,3.7-1,5.2c-0.7,1.6-1.7,2.9-2.9,4c-1.3,1.1-2.8,1.9-4.6,2.5c-1.8,0.6-3.8,0.9-6.1,0.9h-16.3
			V141.4z M496,153.6c0-1.8-1-2.8-3-2.8h-1.4v5.5h1.4C495,156.4,496,155.5,496,153.6z M493,172c3,0,4.6-1.2,4.6-3.5
			c0-2.3-1.5-3.5-4.6-3.5h-1.4v7H493z"/>
		<path class="st2" d="M513.7,141.4H527V171h11v10.5h-24.4V141.4z"/>
		<path class="st2" d="M540,141.4h23.6v10.5h-10.8v4.4h10.6v10h-10.6v4.6H564v10.5h-24V141.4z"/>
	</g>
	<g>
		<path class="st5" d="M272,121.4h13.6v40H272V121.4z"/>
		<path class="st5" d="M289.7,121.4h10.6l10.4,15.4l10.4-15.4h10.6v40h-12.8v-14.4l-8.2,12l-8.2-12v14.4h-12.8V121.4z"/>
		<path class="st5" d="M335.7,121.4h10.6l10.4,15.4l10.4-15.4h10.6v40h-12.8v-14.4l-8.2,12l-8.2-12v14.4h-12.8V121.4z"/>
		<path class="st5" d="M397.2,162.5c-2.5,0-4.8-0.3-6.8-1c-2-0.6-3.8-1.6-5.2-2.9c-1.4-1.3-2.5-2.9-3.3-4.9c-0.8-2-1.2-4.3-1.2-6.9
			v-25.4h12.8v24.9c0,1.4,0.3,2.5,0.9,3.2c0.6,0.7,1.5,1.1,2.9,1.1c1.4,0,2.3-0.4,2.9-1.1c0.6-0.7,0.9-1.8,0.9-3.2v-24.9h12.8v25.4
			c0,2.6-0.4,4.9-1.2,6.9c-0.8,2-1.9,3.6-3.4,4.9c-1.5,1.3-3.2,2.2-5.2,2.9C402,162.2,399.7,162.5,397.2,162.5z"/>
		<path class="st5" d="M423.2,131.9h-7.4v-10.5h28v10.5h-7.4v29.5h-13.2V131.9z"/>
		<path class="st5" d="M453.4,121.4h9.6l15.2,40h-12.6l-1.3-3.6h-12.1l-1.3,3.6h-12.6L453.4,121.4z M460.9,149l-2.7-7l-2.7,7H460.9z
			"/>
		<path class="st5" d="M479.2,121.4h15.7c2,0,3.8,0.2,5.5,0.7c1.7,0.5,3.1,1.1,4.3,2s2.1,2,2.8,3.4c0.7,1.3,1,2.9,1,4.7
			c0,1.3-0.2,2.4-0.5,3.3c-0.3,0.9-0.7,1.7-1,2.2c-0.4,0.7-0.9,1.3-1.5,1.8c0.9,0.6,1.7,1.3,2.4,2.2c0.6,0.8,1.1,1.7,1.6,2.9
			c0.5,1.2,0.8,2.6,0.8,4.3c0,1.9-0.3,3.7-1,5.2c-0.7,1.6-1.7,2.9-2.9,4c-1.3,1.1-2.8,1.9-4.6,2.5c-1.8,0.6-3.8,0.9-6.1,0.9h-16.3
			V121.4z M496,133.6c0-1.8-1-2.8-3-2.8h-1.4v5.5h1.4C495,136.4,496,135.5,496,133.6z M493,152c3,0,4.6-1.2,4.6-3.5
			c0-2.3-1.5-3.5-4.6-3.5h-1.4v7H493z"/>
		<path class="st5" d="M513.7,121.4H527V151h11v10.5h-24.4V121.4z"/>
		<path class="st5" d="M540,121.4h23.6v10.5h-10.8v4.4h10.6v10h-10.6v4.6H564v10.5h-24V121.4z"/>
	</g>
	<g>
		<path class="st6" d="M272,121.4h13.6v40H272V121.4z M279.6,156.7v-30.4H278v30.4H279.6z"/>
		<path class="st6" d="M289.7,121.4h10.6l10.4,15.4l10.4-15.4h10.6v40h-12.8v-14.4l-8.2,12l-8.2-12v14.4h-12.8V121.4z M297.2,156.7
			v-27.5l13.4,19.6l13.4-19.6v27.5h1.6v-30.4H324L310.7,146l-13.4-19.7h-1.6v30.4H297.2z"/>
		<path class="st6" d="M335.7,121.4h10.6l10.4,15.4l10.4-15.4h10.6v40h-12.8v-14.4l-8.2,12l-8.2-12v14.4h-12.8V121.4z M343.3,156.7
			v-27.5l13.4,19.6l13.4-19.6v27.5h1.6v-30.4h-1.6L356.7,146l-13.4-19.7h-1.6v30.4H343.3z"/>
		<path class="st6" d="M397.2,162.5c-2.5,0-4.8-0.3-6.8-1c-2-0.6-3.8-1.6-5.2-2.9c-1.4-1.3-2.5-2.9-3.3-4.9c-0.8-2-1.2-4.3-1.2-6.9
			v-25.4h12.8v24.9c0,1.4,0.3,2.5,0.9,3.2c0.6,0.7,1.5,1.1,2.9,1.1c1.4,0,2.3-0.4,2.9-1.1c0.6-0.7,0.9-1.8,0.9-3.2v-24.9h12.8v25.4
			c0,2.6-0.4,4.9-1.2,6.9c-0.8,2-1.9,3.6-3.4,4.9c-1.5,1.3-3.2,2.2-5.2,2.9C402,162.2,399.7,162.5,397.2,162.5z M397.2,155.3
			c-6,0-9-2.9-9-8.8v-20.2h-1.6v20.2c0,3.4,0.9,5.9,2.7,7.7c1.8,1.8,4.4,2.7,7.8,2.7c3.4,0,6-0.9,7.9-2.7c1.8-1.8,2.8-4.4,2.8-7.7
			v-20.2h-1.6v20.2C406.2,152.3,403.2,155.3,397.2,155.3z"/>
		<path class="st6" d="M423.2,131.9h-7.4v-10.5h28v10.5h-7.4v29.5h-13.2V131.9z M430.6,156.7v-29h8.6v-1.4h-18.7v1.4h8.6v29H430.6z"
			/>
		<path class="st6" d="M453.4,121.4h9.6l15.2,40h-12.6l-1.3-3.6h-12.1l-1.3,3.6h-12.6L453.4,121.4z M447.2,156.7l1.1-3h19.8l1.1,3
			h1.7l-11.6-30.4h-2.3l-11.6,30.4H447.2z M458.2,127.7l9.4,24.5h-18.7L458.2,127.7z M460.9,149l-2.7-7l-2.7,7H460.9z"/>
		<path class="st6" d="M479.2,121.4h15.7c2,0,3.8,0.2,5.5,0.7c1.7,0.5,3.1,1.1,4.3,2s2.1,2,2.8,3.4c0.7,1.3,1,2.9,1,4.7
			c0,1.3-0.2,2.4-0.5,3.3c-0.3,0.9-0.7,1.7-1,2.2c-0.4,0.7-0.9,1.3-1.5,1.8c0.9,0.6,1.7,1.3,2.4,2.2c0.6,0.8,1.1,1.7,1.6,2.9
			c0.5,1.2,0.8,2.6,0.8,4.3c0,1.9-0.3,3.7-1,5.2c-0.7,1.6-1.7,2.9-2.9,4c-1.3,1.1-2.8,1.9-4.6,2.5c-1.8,0.6-3.8,0.9-6.1,0.9h-16.3
			V121.4z M493.9,156.7c3.5,0,6.1-0.8,7.8-2.3c1.7-1.5,2.5-3.5,2.5-6.1c0-1.6-0.4-2.9-1-3.9c-0.7-1-1.5-1.7-2.2-2.3
			c-1-0.6-2.1-1.1-3.3-1.3c1-0.3,1.8-0.7,2.6-1.3c0.7-0.5,1.3-1.2,1.8-2.1s0.8-2,0.8-3.5c0-2.5-0.8-4.4-2.4-5.7
			c-1.6-1.3-3.8-1.9-6.5-1.9h-8.6v30.4H493.9z M486.8,140v-12.4h7.1c2.6,0,4.5,0.6,5.6,1.7c1.1,1.1,1.7,2.6,1.7,4.5
			c0,1.8-0.6,3.3-1.7,4.5c-1.1,1.1-3,1.7-5.6,1.7H486.8z M486.8,155.2v-13.7h7c1.2,0,2.4,0.1,3.5,0.4c1.1,0.3,2,0.7,2.8,1.2
			c0.8,0.5,1.4,1.3,1.9,2.1c0.5,0.9,0.7,1.9,0.7,3.1c0,2.4-0.8,4.2-2.4,5.3s-3.8,1.6-6.4,1.6H486.8z M496,133.6c0-1.8-1-2.8-3-2.8
			h-1.4v5.5h1.4C495,136.4,496,135.5,496,133.6z M493,152c3,0,4.6-1.2,4.6-3.5c0-2.3-1.5-3.5-4.6-3.5h-1.4v7H493z"/>
		<path class="st6" d="M513.7,121.4H527V151h11v10.5h-24.4V121.4z M534.7,156.7v-1.4h-13.4v-29h-1.6v30.4H534.7z"/>
		<path class="st6" d="M540,121.4h23.6v10.5h-10.8v4.4h10.6v10h-10.6v4.6H564v10.5h-24V121.4z M559.5,156.7v-1.4h-12v-13.1h11.4
			v-1.4h-11.4v-13h12v-1.4H546v30.4H559.5z"/>
	</g>
</g>
</svg>
